<svg width="24" height="25" viewBox="0 0 24 25" fill="none" xmlns="http://www.w3.org/2000/svg">
<path d="M20.25 21.5C20.1515 21.5002 20.0539 21.4808 19.9629 21.4431C19.8719 21.4054 19.7893 21.35 19.7198 21.2802L3.21982 4.78019C3.0851 4.63839 3.01111 4.44958 3.01361 4.25401C3.01612 4.05844 3.09492 3.87158 3.23322 3.73328C3.37152 3.59498 3.55838 3.51617 3.75395 3.51367C3.94952 3.51117 4.13833 3.58516 4.28013 3.71987L20.7801 20.2199C20.8849 20.3248 20.9563 20.4584 20.9852 20.6038C21.0141 20.7492 20.9993 20.9 20.9426 21.037C20.8858 21.174 20.7897 21.2911 20.6665 21.3735C20.5432 21.4559 20.3983 21.5 20.25 21.5ZM13.7972 4.45066L12.7622 10.115C12.7369 10.2525 12.7507 10.3943 12.8018 10.5245C12.8529 10.6546 12.9393 10.7678 13.0514 10.8514C13.1864 10.95 13.3497 11.0021 13.5168 11H17.9287L16.1301 13.2228C16.101 13.2588 16.0863 13.3043 16.0887 13.3505C16.0911 13.3967 16.1106 13.4404 16.1433 13.4732L16.9434 14.2733C16.962 14.2919 16.9843 14.3064 17.0088 14.3158C17.0334 14.3253 17.0596 14.3294 17.0859 14.3281C17.1121 14.3267 17.1378 14.3198 17.1612 14.3079C17.1847 14.2959 17.2053 14.2792 17.2218 14.2588L20.0718 10.7357C20.1484 10.6434 20.2023 10.5344 20.2292 10.4175C20.2561 10.3006 20.2552 10.179 20.2265 10.0625C20.1849 9.90148 20.091 9.75881 19.9595 9.65699C19.828 9.55516 19.6663 9.49995 19.5 9.50003H14.3995L15.7218 2.26394C15.7242 2.24987 15.7265 2.23628 15.7279 2.22222C15.7518 2.03459 15.7135 1.8443 15.6189 1.68052C15.5243 1.51673 15.3786 1.38847 15.2042 1.31539C15.0297 1.24231 14.8361 1.22844 14.653 1.2759C14.4699 1.32336 14.3074 1.42953 14.1904 1.57816L9.85075 6.94347C9.82154 6.97949 9.80671 7.02506 9.80913 7.07138C9.81155 7.1177 9.83106 7.16147 9.86388 7.19425L10.664 7.99394C10.6826 8.01254 10.7049 8.02703 10.7294 8.03647C10.754 8.0459 10.7802 8.05007 10.8065 8.0487C10.8327 8.04733 10.8584 8.04045 10.8819 8.02851C10.9053 8.01658 10.9259 7.99984 10.9425 7.97941L13.7972 4.45066ZM10.2084 20.5424L11.2397 14.8841C11.2647 14.7466 11.2508 14.6048 11.1995 14.4748C11.1482 14.3447 11.0616 14.2316 10.9495 14.1482C10.8145 14.05 10.6514 13.9981 10.4845 14H6.07357L7.87169 11.7772C7.90077 11.7412 7.91552 11.6958 7.9131 11.6495C7.91068 11.6033 7.89125 11.5597 7.85857 11.5269L7.05841 10.7267C7.03984 10.7082 7.01758 10.6938 6.99309 10.6844C6.96859 10.675 6.94239 10.6709 6.9162 10.6722C6.89 10.6736 6.86438 10.6805 6.84099 10.6924C6.81761 10.7042 6.79698 10.7209 6.78044 10.7413L3.9281 14.2644C3.8515 14.3567 3.7976 14.4657 3.77074 14.5826C3.74388 14.6995 3.74479 14.821 3.77341 14.9375C3.81499 15.0986 3.90894 15.2412 4.04046 15.3431C4.17199 15.4449 4.33364 15.5001 4.49997 15.5H9.60138L8.28466 22.7357V22.7408C8.25216 22.9294 8.28339 23.1234 8.37341 23.2922C8.46343 23.461 8.60712 23.5951 8.78179 23.6732C8.95646 23.7513 9.15217 23.769 9.33801 23.7235C9.52386 23.678 9.68926 23.5719 9.8081 23.4219L14.1492 18.0566C14.1784 18.0206 14.1932 17.975 14.1908 17.9287C14.1884 17.8824 14.1689 17.8386 14.1361 17.8058L13.3359 17.0061C13.3173 16.9875 13.295 16.973 13.2705 16.9636C13.246 16.9542 13.2197 16.95 13.1935 16.9514C13.1672 16.9527 13.1415 16.9596 13.1181 16.9715C13.0947 16.9835 13.074 17.0002 13.0575 17.0207L10.2084 20.5424Z" fill="white"/>
</svg>
