<svg width="36" height="36" viewBox="0 0 36 36" fill="none" xmlns="http://www.w3.org/2000/svg">
<rect width="36" height="36" rx="18" fill="#26B24B"/>
<path d="M10.65 27.45C10.0725 27.45 9.57835 27.2446 9.16745 26.8337C8.75655 26.4228 8.55075 25.9282 8.55005 25.35V10.65C8.55005 10.0725 8.75585 9.57835 9.16745 9.16745C9.57905 8.75655 10.0732 8.55075 10.65 8.55005H16.95C17.2475 8.55005 17.4971 8.65085 17.6987 8.85245C17.9003 9.05405 18.0007 9.30325 18 9.60005C17.9993 9.89685 17.8985 10.1464 17.6976 10.3487C17.4967 10.551 17.2475 10.6514 16.95 10.65H10.65V25.35H16.95C17.2475 25.35 17.4971 25.4508 17.6987 25.6524C17.9003 25.854 18.0007 26.1032 18 26.4C17.9993 26.6968 17.8985 26.9464 17.6976 27.1487C17.4967 27.351 17.2475 27.4514 16.95 27.45H10.65ZM23.4338 19.05H15.9C15.6025 19.05 15.3533 18.9492 15.1524 18.7476C14.9515 18.546 14.8507 18.2968 14.85 18C14.8493 17.7032 14.9501 17.454 15.1524 17.2524C15.3547 17.0508 15.6039 16.95 15.9 16.95H23.4338L21.465 14.9813C21.2725 14.7888 21.1763 14.5525 21.1763 14.2725C21.1763 13.9925 21.2725 13.7475 21.465 13.5375C21.6575 13.3275 21.9025 13.218 22.2 13.2089C22.4976 13.1998 22.7513 13.3006 22.9613 13.5113L26.715 17.265C26.925 17.475 27.0301 17.72 27.0301 18C27.0301 18.28 26.925 18.525 26.715 18.735L22.9613 22.4888C22.7513 22.6988 22.5021 22.7996 22.2137 22.7912C21.9253 22.7828 21.6757 22.6732 21.465 22.4625C21.2725 22.2525 21.1809 22.0033 21.1899 21.7149C21.199 21.4265 21.2995 21.1857 21.4913 20.9925L23.4338 19.05Z" fill="white"/>
</svg>
