<svg width="24" height="25" viewBox="0 0 24 25" fill="none" xmlns="http://www.w3.org/2000/svg">
<path d="M21 12.5C21 7.53125 16.9688 3.5 12 3.5C7.03125 3.5 3 7.53125 3 12.5C3 17.4688 7.03125 21.5 12 21.5C16.9688 21.5 21 17.4688 21 12.5Z" stroke="white" stroke-width="1.5" stroke-miterlimit="10"/>
<path d="M11.7309 8.28358L11.9999 14L12.2685 8.28358C12.2702 8.24704 12.2644 8.21054 12.2514 8.17632C12.2385 8.1421 12.2188 8.11087 12.1934 8.08454C12.168 8.05822 12.1374 8.03735 12.1037 8.02322C12.07 8.00908 12.0337 8.00198 11.9971 8.00233C11.961 8.00267 11.9253 8.01029 11.8921 8.02474C11.859 8.03918 11.8291 8.06016 11.8043 8.08641C11.7794 8.11266 11.7601 8.14365 11.7475 8.17752C11.7349 8.2114 11.7292 8.24747 11.7309 8.28358Z" stroke="white" stroke-width="1.5" stroke-linecap="round" stroke-linejoin="round"/>
<path d="M12 17.7458C11.8146 17.7458 11.6333 17.6908 11.4792 17.5878C11.325 17.4848 11.2048 17.3384 11.1339 17.1671C11.0629 16.9957 11.0443 16.8072 11.0805 16.6254C11.1167 16.4435 11.206 16.2765 11.3371 16.1454C11.4682 16.0143 11.6352 15.925 11.8171 15.8888C11.999 15.8526 12.1875 15.8712 12.3588 15.9422C12.5301 16.0131 12.6765 16.1333 12.7795 16.2874C12.8825 16.4416 12.9375 16.6229 12.9375 16.8083C12.9375 17.0569 12.8387 17.2954 12.6629 17.4712C12.4871 17.647 12.2486 17.7458 12 17.7458Z" fill="white"/>
</svg>
