<svg width="13" height="18" viewBox="0 0 13 18" fill="none" xmlns="http://www.w3.org/2000/svg">
<path d="M0.68 0.719999H4.808C4.976 0.719999 5.192 0.727999 5.456 0.743999C5.728 0.751999 5.976 0.776 6.2 0.816C7.192 0.967999 8.012 1.304 8.66 1.824C9.316 2.336 9.8 2.98 10.112 3.756C10.432 4.532 10.592 5.396 10.592 6.348C10.592 7.74 10.26 8.92 9.596 9.888C8.94 10.848 7.936 11.484 6.584 11.796C6.256 11.868 5.968 11.916 5.72 11.94C5.472 11.956 5.164 11.964 4.796 11.964H0.68V9.264H4.688C4.856 9.264 5.036 9.256 5.228 9.24C5.428 9.224 5.616 9.192 5.792 9.144C6.264 9.016 6.636 8.804 6.908 8.508C7.188 8.204 7.384 7.86 7.496 7.476C7.616 7.092 7.676 6.716 7.676 6.348C7.676 5.98 7.616 5.604 7.496 5.22C7.384 4.828 7.188 4.48 6.908 4.176C6.636 3.872 6.264 3.66 5.792 3.54C5.616 3.492 5.428 3.464 5.228 3.456C5.036 3.44 4.856 3.432 4.688 3.432H0.68V0.719999ZM0.68 11.964L3.824 11.244L11.432 18H7.4L0.68 11.964ZM0.764 7.44V5.256H12.632V7.44H0.764ZM4.448 2.904V0.719999H12.56V2.904H4.448Z" fill="white"/>
</svg>
