<svg width="24" height="25" viewBox="0 0 24 25" fill="none" xmlns="http://www.w3.org/2000/svg">
<path d="M2.25 16.25L21.75 16.25C22.1642 16.25 22.5 15.9142 22.5 15.5V5C22.5 4.58579 22.1642 4.25 21.75 4.25L2.25 4.25C1.83579 4.25 1.5 4.58579 1.5 5V15.5C1.5 15.9142 1.83579 16.25 2.25 16.25Z" stroke="white" stroke-width="1.5" stroke-linejoin="round"/>
<path d="M3 18.5H21M4.5 20.75H19.5" stroke="white" stroke-width="1.5" stroke-linecap="round" stroke-linejoin="round"/>
<path d="M12 14C14.0711 14 15.75 12.3211 15.75 10.25C15.75 8.17893 14.0711 6.5 12 6.5C9.92893 6.5 8.25 8.17893 8.25 10.25C8.25 12.3211 9.92893 14 12 14Z" stroke="white" stroke-width="1.5" stroke-linecap="round" stroke-linejoin="round"/>
<path d="M22.5 8C21.5054 8 20.5516 7.60491 19.8483 6.90165C19.1451 6.19839 18.75 5.24456 18.75 4.25M1.5 8C1.99246 8 2.48009 7.903 2.93506 7.71455C3.39003 7.52609 3.80343 7.24987 4.15165 6.90165C4.49987 6.55343 4.77609 6.14003 4.96455 5.68506C5.153 5.23009 5.25 4.74246 5.25 4.25M22.5 12.5C21.5054 12.5 20.5516 12.8951 19.8483 13.5983C19.1451 14.3016 18.75 15.2554 18.75 16.25M1.5 12.5C1.99246 12.5 2.48009 12.597 2.93506 12.7855C3.39003 12.9739 3.80343 13.2501 4.15165 13.5983C4.49987 13.9466 4.77609 14.36 4.96455 14.8149C5.153 15.2699 5.25 15.7575 5.25 16.25" stroke="white" stroke-width="1.5" stroke-linecap="round" stroke-linejoin="round"/>
</svg>
